<mxfile host="app.diagrams.net" agent="Mozilla/5.0 (Windows NT 10.0; Win64; x64; rv:143.0) Gecko/20100101 Firefox/143.0" version="28.2.5">
  <diagram name="Page-1" id="hqjtlSOXu0J3TYVjxEZw">
    <mxGraphModel dx="1042" dy="583" grid="1" gridSize="10" guides="1" tooltips="1" connect="1" arrows="1" fold="1" page="1" pageScale="1" pageWidth="850" pageHeight="1100" math="0" shadow="0">
      <root>
        <mxCell id="0" />
        <mxCell id="1" parent="0" />
        <mxCell id="a4DN0tWLdunBfCbzzwAo-61" value="" style="rounded=0;whiteSpace=wrap;html=1;fillColor=#d80073;fontColor=#ffffff;strokeColor=#A50040;" vertex="1" parent="1">
          <mxGeometry x="320" y="790" width="240" height="80" as="geometry" />
        </mxCell>
        <mxCell id="a4DN0tWLdunBfCbzzwAo-59" value="" style="rounded=0;whiteSpace=wrap;html=1;fillColor=#0050ef;fontColor=#ffffff;strokeColor=#001DBC;" vertex="1" parent="1">
          <mxGeometry x="120" y="870" width="250" height="130" as="geometry" />
        </mxCell>
        <mxCell id="a4DN0tWLdunBfCbzzwAo-4" value="" style="rounded=0;whiteSpace=wrap;html=1;fillColor=#0050ef;fontColor=#ffffff;strokeColor=#001DBC;" vertex="1" parent="1">
          <mxGeometry x="120" y="80" width="160" height="200" as="geometry" />
        </mxCell>
        <mxCell id="a4DN0tWLdunBfCbzzwAo-15" value="" style="rounded=0;whiteSpace=wrap;html=1;fillColor=light-dark(#FF3333,#FF0000);fontColor=#ffffff;strokeColor=light-dark(#FF3333,#FF0000);" vertex="1" parent="1">
          <mxGeometry x="280" y="80" width="280" height="200" as="geometry" />
        </mxCell>
        <mxCell id="a4DN0tWLdunBfCbzzwAo-23" value="" style="rounded=0;whiteSpace=wrap;html=1;fillColor=light-dark(#FF3333,#FF0000);fontColor=#ffffff;strokeColor=light-dark(#FF3333,#FF0000);" vertex="1" parent="1">
          <mxGeometry x="200" y="550" width="40" height="130" as="geometry" />
        </mxCell>
        <mxCell id="a4DN0tWLdunBfCbzzwAo-19" value="" style="rounded=0;whiteSpace=wrap;html=1;fillColor=#0050ef;fontColor=#ffffff;strokeColor=#001DBC;" vertex="1" parent="1">
          <mxGeometry x="120" y="470" width="80" height="210" as="geometry" />
        </mxCell>
        <mxCell id="a4DN0tWLdunBfCbzzwAo-30" value="" style="rounded=0;whiteSpace=wrap;html=1;fillColor=#0050ef;fontColor=#ffffff;strokeColor=#001DBC;" vertex="1" parent="1">
          <mxGeometry x="200" y="470" width="40" height="80" as="geometry" />
        </mxCell>
        <mxCell id="a4DN0tWLdunBfCbzzwAo-32" value="" style="rounded=0;whiteSpace=wrap;html=1;fillColor=#d80073;fontColor=#ffffff;strokeColor=#A50040;" vertex="1" parent="1">
          <mxGeometry x="240" y="470" width="80" height="60" as="geometry" />
        </mxCell>
        <mxCell id="a4DN0tWLdunBfCbzzwAo-34" value="" style="rounded=0;whiteSpace=wrap;html=1;fillColor=light-dark(#FF3333,#FF0000);fontColor=#ffffff;strokeColor=light-dark(#FF3333,#FF0000);" vertex="1" parent="1">
          <mxGeometry x="320" y="510" width="80" height="170" as="geometry" />
        </mxCell>
        <mxCell id="a4DN0tWLdunBfCbzzwAo-31" value="" style="rounded=0;whiteSpace=wrap;html=1;fillColor=light-dark(#FF3333,#FF0000);fontColor=#ffffff;strokeColor=light-dark(#FF3333,#FF0000);" vertex="1" parent="1">
          <mxGeometry x="240" y="590" width="80" height="90" as="geometry" />
        </mxCell>
        <mxCell id="a4DN0tWLdunBfCbzzwAo-36" value="" style="rounded=0;whiteSpace=wrap;html=1;fillColor=#d80073;fontColor=#ffffff;strokeColor=#A50040;" vertex="1" parent="1">
          <mxGeometry x="320" y="470" width="80" height="40" as="geometry" />
        </mxCell>
        <mxCell id="a4DN0tWLdunBfCbzzwAo-35" value="" style="rounded=0;whiteSpace=wrap;html=1;fillColor=light-dark(#FF3333,#FF0000);fontColor=#ffffff;strokeColor=light-dark(#FF3333,#FF0000);" vertex="1" parent="1">
          <mxGeometry x="400" y="470" width="160" height="210" as="geometry" />
        </mxCell>
        <mxCell id="a4DN0tWLdunBfCbzzwAo-1" value="" style="endArrow=none;html=1;rounded=0;strokeWidth=3;" edge="1" parent="1">
          <mxGeometry width="50" height="50" relative="1" as="geometry">
            <mxPoint x="120" y="320" as="sourcePoint" />
            <mxPoint x="120" y="40" as="targetPoint" />
          </mxGeometry>
        </mxCell>
        <mxCell id="a4DN0tWLdunBfCbzzwAo-2" value="" style="endArrow=none;html=1;rounded=0;fontSize=11;strokeWidth=5;" edge="1" parent="1">
          <mxGeometry width="50" height="50" relative="1" as="geometry">
            <mxPoint x="120" y="280" as="sourcePoint" />
            <mxPoint x="560" y="280" as="targetPoint" />
          </mxGeometry>
        </mxCell>
        <mxCell id="a4DN0tWLdunBfCbzzwAo-3" value="" style="endArrow=none;html=1;rounded=0;strokeWidth=4;" edge="1" parent="1">
          <mxGeometry width="50" height="50" relative="1" as="geometry">
            <mxPoint x="120" y="80" as="sourcePoint" />
            <mxPoint x="560" y="80" as="targetPoint" />
          </mxGeometry>
        </mxCell>
        <mxCell id="a4DN0tWLdunBfCbzzwAo-6" value="" style="endArrow=none;dashed=1;html=1;dashPattern=1 3;strokeWidth=2;rounded=0;entryX=0.5;entryY=0;entryDx=0;entryDy=0;" edge="1" parent="1" target="a4DN0tWLdunBfCbzzwAo-4">
          <mxGeometry width="50" height="50" relative="1" as="geometry">
            <mxPoint x="200" y="320" as="sourcePoint" />
            <mxPoint x="410" y="120" as="targetPoint" />
          </mxGeometry>
        </mxCell>
        <mxCell id="a4DN0tWLdunBfCbzzwAo-7" value="&lt;font style=&quot;font-size: 16px;&quot;&gt;Utilization&lt;/font&gt;" style="text;html=1;align=center;verticalAlign=middle;resizable=0;points=[];autosize=1;strokeColor=none;fillColor=none;rotation=-90;" vertex="1" parent="1">
          <mxGeometry x="60" y="165" width="90" height="30" as="geometry" />
        </mxCell>
        <mxCell id="a4DN0tWLdunBfCbzzwAo-8" value="&lt;span style=&quot;color: light-dark(rgb(0, 0, 0), rgb(0, 0, 0));&quot;&gt;1&lt;/span&gt;" style="text;html=1;align=center;verticalAlign=middle;resizable=0;points=[];autosize=1;strokeColor=none;fillColor=none;" vertex="1" parent="1">
          <mxGeometry x="140" y="165" width="30" height="30" as="geometry" />
        </mxCell>
        <mxCell id="a4DN0tWLdunBfCbzzwAo-9" value="&lt;span style=&quot;color: light-dark(rgb(0, 0, 0), rgb(0, 0, 0));&quot;&gt;2&lt;/span&gt;" style="text;html=1;align=center;verticalAlign=middle;resizable=0;points=[];autosize=1;strokeColor=none;fillColor=none;" vertex="1" parent="1">
          <mxGeometry x="300" y="165" width="30" height="30" as="geometry" />
        </mxCell>
        <mxCell id="a4DN0tWLdunBfCbzzwAo-10" value="Time" style="text;html=1;align=center;verticalAlign=middle;resizable=0;points=[];autosize=1;strokeColor=none;fillColor=none;" vertex="1" parent="1">
          <mxGeometry x="360" y="280" width="50" height="30" as="geometry" />
        </mxCell>
        <mxCell id="a4DN0tWLdunBfCbzzwAo-11" value="&lt;div&gt;Job 1&lt;/div&gt;&lt;div&gt;submitted&lt;/div&gt;" style="text;html=1;align=center;verticalAlign=middle;resizable=0;points=[];autosize=1;strokeColor=none;fillColor=none;" vertex="1" parent="1">
          <mxGeometry x="80" y="320" width="80" height="40" as="geometry" />
        </mxCell>
        <mxCell id="a4DN0tWLdunBfCbzzwAo-12" value="&lt;div&gt;Job 2&lt;/div&gt;&lt;div&gt;Submitted&lt;/div&gt;" style="text;html=1;align=center;verticalAlign=middle;resizable=0;points=[];autosize=1;strokeColor=none;fillColor=none;" vertex="1" parent="1">
          <mxGeometry x="160" y="320" width="80" height="40" as="geometry" />
        </mxCell>
        <mxCell id="a4DN0tWLdunBfCbzzwAo-13" value="" style="endArrow=none;dashed=1;html=1;dashPattern=1 3;strokeWidth=2;rounded=0;" edge="1" parent="1">
          <mxGeometry width="50" height="50" relative="1" as="geometry">
            <mxPoint x="240" y="290" as="sourcePoint" />
            <mxPoint x="240" y="40" as="targetPoint" />
          </mxGeometry>
        </mxCell>
        <mxCell id="a4DN0tWLdunBfCbzzwAo-14" value="&lt;div&gt;Job 3&lt;/div&gt;&lt;div&gt;Submitted&lt;/div&gt;" style="text;html=1;align=center;verticalAlign=middle;resizable=0;points=[];autosize=1;strokeColor=none;fillColor=none;" vertex="1" parent="1">
          <mxGeometry x="200" width="80" height="40" as="geometry" />
        </mxCell>
        <mxCell id="a4DN0tWLdunBfCbzzwAo-16" value="" style="endArrow=none;html=1;rounded=0;strokeWidth=3;" edge="1" parent="1">
          <mxGeometry width="50" height="50" relative="1" as="geometry">
            <mxPoint x="120" y="720" as="sourcePoint" />
            <mxPoint x="120" y="440" as="targetPoint" />
          </mxGeometry>
        </mxCell>
        <mxCell id="a4DN0tWLdunBfCbzzwAo-17" value="" style="endArrow=none;html=1;rounded=0;fontSize=11;strokeWidth=5;" edge="1" parent="1">
          <mxGeometry width="50" height="50" relative="1" as="geometry">
            <mxPoint x="120" y="680" as="sourcePoint" />
            <mxPoint x="560" y="680" as="targetPoint" />
          </mxGeometry>
        </mxCell>
        <mxCell id="a4DN0tWLdunBfCbzzwAo-18" value="" style="endArrow=none;html=1;rounded=0;strokeWidth=4;" edge="1" parent="1">
          <mxGeometry width="50" height="50" relative="1" as="geometry">
            <mxPoint x="120" y="470" as="sourcePoint" />
            <mxPoint x="560" y="470" as="targetPoint" />
          </mxGeometry>
        </mxCell>
        <mxCell id="a4DN0tWLdunBfCbzzwAo-21" value="&lt;font style=&quot;font-size: 16px;&quot;&gt;Utilization&lt;/font&gt;" style="text;html=1;align=center;verticalAlign=middle;resizable=0;points=[];autosize=1;strokeColor=none;fillColor=none;rotation=-90;" vertex="1" parent="1">
          <mxGeometry x="60" y="565" width="90" height="30" as="geometry" />
        </mxCell>
        <mxCell id="a4DN0tWLdunBfCbzzwAo-22" value="&lt;span style=&quot;color: light-dark(rgb(0, 0, 0), rgb(0, 0, 0));&quot;&gt;1&lt;/span&gt;" style="text;html=1;align=center;verticalAlign=middle;resizable=0;points=[];autosize=1;strokeColor=none;fillColor=none;" vertex="1" parent="1">
          <mxGeometry x="140" y="565" width="30" height="30" as="geometry" />
        </mxCell>
        <mxCell id="a4DN0tWLdunBfCbzzwAo-24" value="&lt;span style=&quot;color: light-dark(rgb(0, 0, 0), rgb(0, 0, 0));&quot;&gt;2&lt;/span&gt;" style="text;html=1;align=center;verticalAlign=middle;resizable=0;points=[];autosize=1;strokeColor=none;fillColor=none;" vertex="1" parent="1">
          <mxGeometry x="205" y="595" width="30" height="30" as="geometry" />
        </mxCell>
        <mxCell id="a4DN0tWLdunBfCbzzwAo-25" value="Time" style="text;html=1;align=center;verticalAlign=middle;resizable=0;points=[];autosize=1;strokeColor=none;fillColor=none;" vertex="1" parent="1">
          <mxGeometry x="360" y="680" width="50" height="30" as="geometry" />
        </mxCell>
        <mxCell id="a4DN0tWLdunBfCbzzwAo-26" value="&lt;div&gt;Job 1&lt;/div&gt;&lt;div&gt;submitted&lt;/div&gt;" style="text;html=1;align=center;verticalAlign=middle;resizable=0;points=[];autosize=1;strokeColor=none;fillColor=none;" vertex="1" parent="1">
          <mxGeometry x="80" y="720" width="80" height="40" as="geometry" />
        </mxCell>
        <mxCell id="a4DN0tWLdunBfCbzzwAo-27" value="&lt;div&gt;Job 2&lt;/div&gt;&lt;div&gt;Submitted&lt;/div&gt;" style="text;html=1;align=center;verticalAlign=middle;resizable=0;points=[];autosize=1;strokeColor=none;fillColor=none;" vertex="1" parent="1">
          <mxGeometry x="160" y="720" width="80" height="40" as="geometry" />
        </mxCell>
        <mxCell id="a4DN0tWLdunBfCbzzwAo-29" value="&lt;div&gt;Job 3&lt;/div&gt;&lt;div&gt;Submitted&lt;/div&gt;" style="text;html=1;align=center;verticalAlign=middle;resizable=0;points=[];autosize=1;strokeColor=none;fillColor=none;" vertex="1" parent="1">
          <mxGeometry x="200" y="400" width="80" height="40" as="geometry" />
        </mxCell>
        <mxCell id="a4DN0tWLdunBfCbzzwAo-28" value="" style="endArrow=none;dashed=1;html=1;dashPattern=1 3;strokeWidth=2;rounded=0;" edge="1" parent="1">
          <mxGeometry width="50" height="50" relative="1" as="geometry">
            <mxPoint x="240" y="690" as="sourcePoint" />
            <mxPoint x="240" y="440" as="targetPoint" />
          </mxGeometry>
        </mxCell>
        <mxCell id="a4DN0tWLdunBfCbzzwAo-20" value="" style="endArrow=none;dashed=1;html=1;dashPattern=1 3;strokeWidth=2;rounded=0;" edge="1" parent="1">
          <mxGeometry width="50" height="50" relative="1" as="geometry">
            <mxPoint x="200" y="720" as="sourcePoint" />
            <mxPoint x="200" y="460" as="targetPoint" />
          </mxGeometry>
        </mxCell>
        <mxCell id="a4DN0tWLdunBfCbzzwAo-33" value="&lt;span style=&quot;color: light-dark(rgb(0, 0, 0), rgb(0, 0, 0));&quot;&gt;3&lt;/span&gt;" style="text;html=1;align=center;verticalAlign=middle;resizable=0;points=[];autosize=1;strokeColor=none;fillColor=none;" vertex="1" parent="1">
          <mxGeometry x="255" y="555" width="30" height="30" as="geometry" />
        </mxCell>
        <mxCell id="a4DN0tWLdunBfCbzzwAo-37" value="" style="endArrow=none;html=1;rounded=0;strokeWidth=3;" edge="1" parent="1">
          <mxGeometry width="50" height="50" relative="1" as="geometry">
            <mxPoint x="120" y="1040" as="sourcePoint" />
            <mxPoint x="120" y="760" as="targetPoint" />
          </mxGeometry>
        </mxCell>
        <mxCell id="a4DN0tWLdunBfCbzzwAo-38" value="" style="endArrow=none;html=1;rounded=0;fontSize=11;strokeWidth=5;" edge="1" parent="1">
          <mxGeometry width="50" height="50" relative="1" as="geometry">
            <mxPoint x="120" y="1000" as="sourcePoint" />
            <mxPoint x="560" y="1000" as="targetPoint" />
          </mxGeometry>
        </mxCell>
        <mxCell id="a4DN0tWLdunBfCbzzwAo-39" value="" style="endArrow=none;html=1;rounded=0;strokeWidth=4;" edge="1" parent="1">
          <mxGeometry width="50" height="50" relative="1" as="geometry">
            <mxPoint x="120" y="790" as="sourcePoint" />
            <mxPoint x="560" y="790" as="targetPoint" />
          </mxGeometry>
        </mxCell>
        <mxCell id="a4DN0tWLdunBfCbzzwAo-41" value="&lt;font style=&quot;font-size: 16px;&quot;&gt;Utilization&lt;/font&gt;" style="text;html=1;align=center;verticalAlign=middle;resizable=0;points=[];autosize=1;strokeColor=none;fillColor=none;rotation=-90;" vertex="1" parent="1">
          <mxGeometry x="60" y="885" width="90" height="30" as="geometry" />
        </mxCell>
        <mxCell id="a4DN0tWLdunBfCbzzwAo-45" value="Time" style="text;html=1;align=center;verticalAlign=middle;resizable=0;points=[];autosize=1;strokeColor=none;fillColor=none;" vertex="1" parent="1">
          <mxGeometry x="360" y="1000" width="50" height="30" as="geometry" />
        </mxCell>
        <mxCell id="a4DN0tWLdunBfCbzzwAo-46" value="&lt;div&gt;Job 1&lt;/div&gt;&lt;div&gt;submitted&lt;/div&gt;" style="text;html=1;align=center;verticalAlign=middle;resizable=0;points=[];autosize=1;strokeColor=none;fillColor=none;" vertex="1" parent="1">
          <mxGeometry x="80" y="1040" width="80" height="40" as="geometry" />
        </mxCell>
        <mxCell id="a4DN0tWLdunBfCbzzwAo-47" value="&lt;div&gt;Job 2&lt;/div&gt;&lt;div&gt;Submitted&lt;/div&gt;" style="text;html=1;align=center;verticalAlign=middle;resizable=0;points=[];autosize=1;strokeColor=none;fillColor=none;" vertex="1" parent="1">
          <mxGeometry x="280" y="1040" width="80" height="40" as="geometry" />
        </mxCell>
        <mxCell id="a4DN0tWLdunBfCbzzwAo-53" value="" style="endArrow=none;dashed=1;html=1;dashPattern=1 3;strokeWidth=2;rounded=0;" edge="1" parent="1">
          <mxGeometry width="50" height="50" relative="1" as="geometry">
            <mxPoint x="320" y="1040" as="sourcePoint" />
            <mxPoint x="320" y="780" as="targetPoint" />
          </mxGeometry>
        </mxCell>
        <mxCell id="a4DN0tWLdunBfCbzzwAo-58" value="" style="rounded=0;whiteSpace=wrap;html=1;fillColor=#0050ef;fontColor=#ffffff;strokeColor=#001DBC;" vertex="1" parent="1">
          <mxGeometry x="240" y="530" width="80" height="60" as="geometry" />
        </mxCell>
        <mxCell id="a4DN0tWLdunBfCbzzwAo-62" value="&lt;span style=&quot;color: light-dark(rgb(0, 0, 0), rgb(0, 0, 0));&quot;&gt;2&lt;/span&gt;" style="text;html=1;align=center;verticalAlign=middle;resizable=0;points=[];autosize=1;strokeColor=none;fillColor=none;" vertex="1" parent="1">
          <mxGeometry x="410" y="815" width="30" height="30" as="geometry" />
        </mxCell>
      </root>
    </mxGraphModel>
  </diagram>
</mxfile>
